<svg width="240" height="240" viewBox="0 0 240 240" fill="none" xmlns="http://www.w3.org/2000/svg">
<path d="M158.562 120.079C158.562 91.6992 153.361 66.0446 144.988 47.516C140.801 38.2505 135.837 30.8044 130.369 25.686C124.904 20.5712 118.98 17.8177 112.833 17.8177C106.687 17.8177 100.761 20.5711 95.2967 25.686C89.8283 30.8044 84.8647 38.2507 80.6777 47.516C72.3047 66.0446 67.1045 91.6992 67.1045 120.079C67.1046 148.459 72.3048 174.113 80.6777 192.641C84.8648 201.907 89.8282 209.354 95.2967 214.472C100.761 219.587 106.687 222.34 112.833 222.34V223.158L112.231 223.149C86.9829 222.442 66.576 177.283 66.2561 121.412L66.252 120.079C66.252 63.1502 87.1071 17.0001 112.833 17.0001L113.435 17.0089C138.884 17.7222 159.414 63.5949 159.414 120.079L159.41 121.412C159.088 177.726 138.358 223.158 112.833 223.158V222.34C118.98 222.34 124.904 219.587 130.369 214.472C135.837 209.354 140.801 201.907 144.988 192.641C153.361 174.113 158.562 148.459 158.562 120.079Z" fill="#43554A"/>
<path d="M165.728 120.079C165.728 91.6993 160.527 66.0447 152.154 47.5161C147.967 38.2506 143.003 30.8045 137.535 25.6861C132.07 20.5713 126.146 17.8178 119.999 17.8178C113.853 17.8178 107.927 20.5713 102.463 25.6861C96.9943 30.8045 92.0307 38.2508 87.8437 47.5161C79.4707 66.0447 74.2706 91.6993 74.2706 120.079C74.2706 148.459 79.4708 174.113 87.8437 192.641C92.0308 201.907 96.9942 209.354 102.463 214.472C107.927 219.587 113.853 222.34 119.999 222.34V223.158L119.397 223.149C94.1489 222.442 73.742 177.283 73.4221 121.412L73.418 120.079C73.418 63.1503 94.2731 17.0002 119.999 17.0002L120.601 17.009C146.05 17.7224 166.58 63.5951 166.58 120.079L166.576 121.412C166.254 177.726 145.524 223.158 119.999 223.158V222.34C126.146 222.34 132.07 219.587 137.535 214.472C143.003 209.354 147.967 201.907 152.154 192.641C160.527 174.113 165.728 148.459 165.728 120.079Z" fill="#43554A"/>
<path d="M172.894 120.079C172.894 91.6993 167.693 66.0447 159.32 47.5161C155.133 38.2506 150.169 30.8045 144.701 25.6861C139.236 20.5713 133.312 17.8178 127.165 17.8178C121.019 17.8178 115.093 20.5713 109.629 25.6861C104.16 30.8045 99.1967 38.2508 95.0098 47.5161C86.6367 66.0447 81.4366 91.6993 81.4366 120.079C81.4366 148.459 86.6368 174.113 95.0098 192.641C99.1968 201.907 104.16 209.354 109.629 214.472C115.093 219.587 121.019 222.34 127.165 222.34V223.158L126.563 223.149C101.315 222.442 80.908 177.283 80.5881 121.412L80.584 120.079C80.584 63.1503 101.439 17.0002 127.165 17.0002L127.767 17.009C153.216 17.7224 173.746 63.5951 173.746 120.079L173.742 121.412C173.42 177.726 152.69 223.158 127.165 223.158V222.34C133.312 222.34 139.236 219.587 144.701 214.472C150.169 209.354 155.133 201.907 159.32 192.641C167.693 174.113 172.894 148.459 172.894 120.079Z" fill="#43554A"/>
<path d="M139.281 88.0551C113.651 73.8652 87.8813 65.3564 66.9611 63.0454C56.4997 61.8898 47.2928 62.2893 39.936 64.2714C32.5843 66.2521 27.1354 69.7953 24.0621 74.8996C20.9889 80.004 20.513 86.3013 22.4 93.3969C24.2884 100.497 28.5315 108.342 34.8058 116.452C47.353 132.67 67.9222 149.816 93.5528 164.005C119.183 178.195 144.952 186.704 165.872 189.015C176.334 190.17 185.541 189.772 192.898 187.79C200.249 185.809 205.699 182.265 208.772 177.161L209.51 177.57L209.201 178.065C195.938 198.679 144.951 193.046 94.332 165.376L93.1265 164.714C41.7125 136.249 10.4608 95.855 23.3238 74.4909L23.6327 73.9953C37.0012 53.2183 88.6953 59.105 139.708 87.3471L140.909 88.0168C191.607 116.442 222.273 156.373 209.51 177.57L208.772 177.161C211.845 172.057 212.321 165.76 210.434 158.664C208.545 151.564 204.302 143.718 198.028 135.608C185.48 119.39 164.912 102.245 139.281 88.0551Z" fill="#43554A"/>
<path d="M142.863 82.104C117.233 67.914 91.4634 59.4052 70.5431 57.0943C60.0817 55.9387 50.8749 56.3381 43.518 58.3202C36.1664 60.301 30.7174 63.8441 27.6442 68.9485C24.5709 74.0528 24.095 80.3501 25.982 87.4457C27.8704 94.5461 32.1136 102.391 38.3878 110.501C50.935 126.719 71.5042 143.864 97.1348 158.054C122.765 172.244 148.534 180.753 169.454 183.064C179.916 184.219 189.123 183.821 196.48 181.839C203.831 179.858 209.281 176.314 212.354 171.21L213.092 171.619L212.783 172.114C199.52 192.728 148.533 187.095 97.9141 159.425L96.7085 158.762C45.2946 130.298 14.0428 89.9038 26.9058 68.5397L27.2147 68.0442C40.5832 47.2671 92.2774 53.1539 143.29 81.3959L144.491 82.0656C195.189 110.491 225.855 150.421 213.092 171.619L212.354 171.21C215.427 166.105 215.903 159.809 214.016 152.713C212.127 145.613 207.884 137.767 201.61 129.657C189.062 113.439 168.494 96.2938 142.863 82.104Z" fill="#43554A"/>
<path d="M146.447 76.1528C120.817 61.9628 95.0474 53.454 74.1271 51.1431C63.6657 49.9875 54.4588 50.3869 47.102 52.369C39.7503 54.3498 34.3014 57.893 31.2281 62.9973C28.1549 68.1017 27.679 74.3989 29.566 81.4945C31.4544 88.5949 35.6976 96.4401 41.9718 104.55C54.519 120.767 75.0882 137.913 100.719 152.103C126.349 166.293 152.118 174.801 173.038 177.112C183.5 178.268 192.707 177.87 200.064 175.888C207.415 173.907 212.865 170.363 215.938 165.259L216.676 165.667L216.367 166.163C203.104 186.776 152.117 181.144 101.498 153.474L100.293 152.811C48.8785 124.347 17.6268 83.9526 30.4898 62.5885L30.7987 62.093C44.1672 41.316 95.8613 47.2027 146.874 75.4448L148.075 76.1145C198.773 104.54 229.439 144.47 216.676 165.667L215.938 165.259C219.011 160.154 219.487 153.858 217.6 146.762C215.711 139.661 211.468 131.816 205.194 123.706C192.646 107.488 172.078 90.3426 146.447 76.1528Z" fill="#43554A"/>
<path d="M100.719 88.0551C126.349 73.8652 152.119 65.3564 173.039 63.0454C183.5 61.8898 192.707 62.2893 200.064 64.2714C207.416 66.2521 212.865 69.7953 215.938 74.8996C219.011 80.004 219.487 86.3013 217.6 93.3969C215.712 100.497 211.468 108.342 205.194 116.452C192.647 132.67 172.078 149.816 146.447 164.005C120.817 178.195 95.0479 186.704 74.1277 189.015C63.6663 190.17 54.4591 189.772 47.1023 187.79C39.7506 185.809 34.3013 182.265 31.228 177.161L30.4896 177.57L30.7985 178.065C44.0616 198.679 95.0491 193.046 145.668 165.376L146.873 164.714C198.287 136.249 229.539 95.855 216.676 74.4909L216.367 73.9953C202.999 53.2183 151.305 59.105 100.292 87.3471L99.091 88.0168C48.3929 116.442 17.7273 156.373 30.4896 177.57L31.228 177.161C28.1548 172.057 27.6793 165.76 29.5663 158.664C31.4546 151.564 35.6979 143.718 41.9724 135.608C54.5195 119.39 75.0882 102.245 100.719 88.0551Z" fill="#43554A"/>
<path d="M97.1366 82.104C122.767 67.914 148.537 59.4052 169.457 57.0943C179.918 55.9387 189.125 56.3381 196.482 58.3202C203.834 60.301 209.283 63.8441 212.356 68.9485C215.429 74.0528 215.905 80.3501 214.018 87.4457C212.13 94.5461 207.886 102.391 201.612 110.501C189.065 126.719 168.496 143.864 142.865 158.054C117.235 172.244 91.4658 180.753 70.5457 183.064C60.0843 184.219 50.8771 183.821 43.5202 181.839C36.1685 179.858 30.7192 176.314 27.646 171.21L26.9076 171.619L27.2165 172.114C40.4796 192.728 91.467 187.095 142.086 159.425L143.291 158.762C194.705 130.298 225.957 89.9038 213.094 68.5397L212.785 68.0442C199.417 47.2671 147.723 53.1539 96.7103 81.3959L95.509 82.0656C44.8109 110.491 14.1452 150.421 26.9076 171.619L27.646 171.21C24.5727 166.105 24.0973 159.809 25.9842 152.713C27.8726 145.613 32.1158 137.767 38.3903 129.657C50.9375 113.439 71.5062 96.2938 97.1366 82.104Z" fill="#43554A"/>
<path d="M93.5527 76.1528C119.183 61.9628 144.953 53.454 165.873 51.1431C176.334 49.9875 185.541 50.3869 192.898 52.369C200.25 54.3498 205.699 57.893 208.772 62.9973C211.845 68.1017 212.321 74.3989 210.434 81.4945C208.546 88.5949 204.302 96.4401 198.028 104.55C185.481 120.767 164.912 137.913 139.281 152.103C113.651 166.293 87.8818 174.801 66.9617 177.112C56.5003 178.268 47.2931 177.87 39.9362 175.888C32.5846 173.907 27.1352 170.363 24.062 165.259L23.3236 165.667L23.6325 166.163C36.8956 186.776 87.883 181.144 138.502 153.474L139.707 152.811C191.121 124.347 222.373 83.9526 209.51 62.5885L209.201 62.093C195.833 41.316 144.139 47.2027 93.1264 75.4448L91.925 76.1145C41.2269 104.54 10.5612 144.47 23.3236 165.667L24.062 165.259C20.9888 160.154 20.5133 153.858 22.4002 146.762C24.2886 139.661 28.5318 131.816 34.8063 123.706C47.3535 107.488 67.9222 90.3426 93.5527 76.1528Z" fill="#43554A"/>
</svg>
