<svg width="240" height="240" viewBox="0 0 240 240" fill="none" xmlns="http://www.w3.org/2000/svg">
<path fill-rule="evenodd" clip-rule="evenodd" d="M200.854 155.622C200.549 155.811 200.24 155.995 199.928 156.175C199.602 156.364 199.274 156.547 198.943 156.724C198.639 156.913 198.331 157.098 198.019 157.278C197.692 157.467 197.364 157.649 197.033 157.825C196.729 158.016 196.421 158.201 196.11 158.381C195.783 158.569 195.454 158.752 195.122 158.927C194.819 159.118 194.512 159.303 194.201 159.483C193.874 159.672 193.543 159.854 193.21 160.028C192.909 160.22 192.603 160.406 192.292 160.586C191.964 160.775 191.633 160.956 191.299 161.129C190.999 161.323 190.693 161.509 190.383 161.688C190.055 161.878 189.722 162.059 189.387 162.23C189.088 162.425 188.784 162.612 188.474 162.791C188.145 162.981 187.812 163.161 187.474 163.331C187.178 163.527 186.875 163.715 186.565 163.893C169.696 173.636 139.78 153.393 119.745 118.678C99.7102 83.9637 97.1436 47.9239 114.012 38.181C114.322 38.0022 114.636 37.8335 114.954 37.6748C115.27 37.4673 115.592 37.2685 115.921 37.0785C116.231 36.8994 116.545 36.7293 116.863 36.5681C117.18 36.363 117.502 36.1656 117.83 35.9759C118.141 35.7966 118.455 35.6253 118.772 35.4621C119.089 35.259 119.411 35.0627 119.739 34.8734C120.05 34.6938 120.364 34.5215 120.681 34.3565C120.998 34.1551 121.321 33.9598 121.648 33.7708C121.96 33.591 122.273 33.4179 122.59 33.2513C122.908 33.0514 123.23 32.857 123.557 32.6682C123.869 32.4883 124.183 32.3143 124.499 32.1464C124.817 31.9478 125.14 31.7542 125.466 31.5657C125.778 31.3855 126.092 31.2109 126.408 31.0419C126.727 30.8444 127.049 30.6514 127.375 30.4631C127.687 30.2828 128.001 30.1076 128.317 29.9375C128.636 29.741 128.958 29.5487 129.284 29.3605C154.587 14.7463 191.341 31.0407 211.376 65.7552C231.411 100.47 227.14 140.459 201.837 155.073C201.511 155.261 201.183 155.444 200.854 155.622ZM196.934 133.052C195.905 118.595 190.29 100.994 180.309 83.6987C170.327 66.4031 157.897 52.7388 145.896 44.6181C136.929 38.55 128.304 35.6383 121.13 36.4863C113.798 44.0459 109.392 54.5786 108.114 66.546C106.403 82.569 110.308 101.118 120.269 118.376C130.229 135.634 144.334 148.292 159.06 154.821C170.06 159.697 181.38 161.147 191.591 158.574C195.912 152.783 197.704 143.855 196.934 133.052ZM193.147 158.148C192.936 158.211 192.725 158.271 192.513 158.33C202.373 144.084 198.062 113.25 180.832 83.3962C163.603 53.5423 139.065 34.3907 121.802 35.8096C121.959 35.6555 122.117 35.5028 122.277 35.3513C130.065 33.8212 139.474 36.5227 149.167 42.744C161.508 50.6647 174.147 64.2024 184.127 81.4935C194.106 98.7847 199.506 116.504 200.192 131.155C200.732 142.664 198.365 152.166 193.147 158.148ZM194.596 157.689C194.468 157.732 194.341 157.775 194.214 157.816C205.696 143.452 202.213 111.623 184.65 81.1911C167.087 50.7595 141.274 31.8278 123.098 34.5932C123.197 34.5035 123.298 34.4144 123.398 34.3258C131.813 32.0722 142.022 34.5273 152.438 40.8694C165.119 48.5905 177.968 62.0017 187.944 79.2884C197.921 96.5751 203.107 114.412 203.451 129.259C203.733 141.454 200.754 151.526 194.596 157.689ZM195.947 157.204C195.918 157.215 195.889 157.226 195.86 157.237C208.949 142.721 206.329 109.934 188.468 78.986C170.607 48.0375 143.533 29.3752 124.422 33.4567C124.446 33.4369 124.471 33.4172 124.495 33.3974C133.549 30.3848 144.572 32.561 155.709 38.9943C168.73 46.5161 181.788 59.8012 191.762 77.0833C201.737 94.3654 206.708 112.321 206.709 127.363C206.71 140.228 203.083 150.866 195.947 157.204ZM163.992 157.41C171.599 160.022 179.271 160.994 186.545 160.12C179.361 161.134 171.675 160.158 163.992 157.41ZM136.598 26.7197C147.546 23.038 159.997 24.2642 172.061 29.6126C186.787 36.1415 200.892 48.7994 210.852 66.0577C220.812 83.3159 224.718 101.865 223.007 117.887C221.605 131.013 216.441 142.413 207.78 150.057C224.659 132.724 225.179 98.4929 207.558 67.9604C189.936 37.4278 160.043 20.7627 136.598 26.7197ZM108.339 60.9789C109.802 52.9487 112.799 45.802 117.269 40.0846C112.875 45.9495 109.881 53.0821 108.339 60.9789ZM203.74 70.1655C221.428 100.813 221.503 134.802 205.318 151.564C213.725 144.167 218.613 132.888 219.747 119.782C221.116 103.956 216.997 85.526 207.034 68.2628C197.071 50.9996 183.176 38.2168 168.791 31.4897C156.878 25.9189 144.669 24.5141 134.063 28.0993C156.666 22.4577 186.052 39.5179 203.74 70.1655ZM162.558 157.524C170.557 160.58 178.613 161.755 186.157 160.783C178.726 161.926 170.653 160.746 162.558 157.524ZM116.5 40.0898C111.796 45.9565 108.781 53.54 107.523 62.1637C108.877 53.7062 111.888 46.14 116.5 40.0898ZM161.245 157.64C169.556 161.133 177.905 162.521 185.622 161.472C178.044 162.726 169.674 161.334 161.245 157.64ZM131.549 29.4691C141.802 25.9815 153.762 27.5679 165.521 33.3665C179.564 40.2919 193.25 53.1999 203.216 70.4679C213.182 87.7359 217.514 106.047 216.487 121.676C215.628 134.763 211.021 145.918 202.875 153.057C218.357 136.874 217.676 103.133 199.922 72.3706C182.168 41.6082 153.299 24.1476 131.549 29.4691ZM106.766 63.2436C107.783 54.0946 110.763 46.1463 115.637 40.208C110.871 46.3696 107.897 54.2975 106.766 63.2436ZM196.104 74.5757C213.924 105.452 215.22 138.94 200.452 154.536C208.33 147.664 212.648 136.639 213.228 123.571C213.912 108.138 209.367 89.9458 199.398 72.673C189.43 55.4003 175.953 42.3668 162.25 35.2429C150.648 29.2107 138.944 27.4399 129.056 30.8291C149.942 25.8327 178.284 43.6991 196.104 74.5757ZM160.032 157.759C168.587 161.683 177.155 163.293 184.963 162.186C177.324 163.535 168.731 161.922 160.032 157.759ZM114.689 40.4224C109.702 46.3661 106.802 54.6177 106.057 64.2355C106.937 54.8618 109.828 46.6336 114.689 40.4224ZM158.903 157.88C167.646 162.229 176.366 164.07 184.194 162.924C176.569 164.353 167.819 162.511 158.903 157.88ZM126.586 32.1792C136.096 28.8889 147.536 30.847 158.98 37.1188C172.341 44.4415 185.609 57.6007 195.58 74.8782C205.552 92.1556 210.31 110.23 209.968 125.467C209.676 138.517 205.651 149.407 198.048 156.001C212.092 140.997 210.171 107.771 192.286 76.7809C174.401 45.7908 146.597 27.5133 126.586 32.1792ZM105.387 65.1526C105.836 55.1131 108.616 46.6116 113.666 40.72C108.76 46.9282 105.993 55.4037 105.387 65.1526ZM157.847 158.006C166.728 162.773 175.543 164.852 183.326 163.684C175.782 165.179 166.934 163.103 157.847 158.006ZM112.574 41.0913C107.508 46.8797 104.881 55.5836 104.749 66.0049C105.063 55.927 107.671 47.251 112.574 41.0913ZM156.853 158.137C165.829 163.315 174.686 165.638 182.37 164.467C174.968 166.015 166.074 163.699 156.853 158.137ZM104.14 66.7999C103.935 56.031 106.377 47.1675 111.418 41.5286C106.562 47.6001 104.145 56.4346 104.14 66.7999ZM155.916 158.273C164.948 163.854 173.797 166.429 181.332 165.271C174.127 166.86 165.236 164.3 155.916 158.273ZM110.203 42.0261C105.225 47.4729 102.996 56.4566 103.553 67.5441C103.238 56.929 105.433 47.9745 110.203 42.0261Z" fill="#43554A"/>
<path fill-rule="evenodd" clip-rule="evenodd" d="M112.684 210.038C113 209.868 113.314 209.692 113.626 209.512C113.952 209.324 114.274 209.131 114.593 208.933C114.909 208.764 115.223 208.59 115.535 208.409C115.861 208.221 116.184 208.027 116.502 207.829C116.818 207.661 117.132 207.487 117.444 207.307C117.771 207.118 118.093 206.924 118.411 206.724C118.727 206.557 119.041 206.384 119.353 206.204C119.68 206.015 120.002 205.82 120.32 205.619C120.637 205.454 120.951 205.281 121.262 205.102C121.589 204.912 121.912 204.716 122.229 204.513C122.546 204.35 122.86 204.179 123.171 203.999C123.499 203.81 123.821 203.612 124.138 203.407C124.456 203.246 124.77 203.076 125.08 202.897C125.409 202.707 125.731 202.508 126.047 202.3C126.365 202.142 126.679 201.973 126.989 201.794C143.857 192.051 141.291 156.011 121.256 121.297C101.221 86.5824 71.3047 66.3389 54.4359 76.0817C54.1263 76.2606 53.8232 76.4482 53.5267 76.6446C53.1892 76.8144 52.8559 76.9943 52.527 77.1843C52.2169 77.3634 51.9126 77.5504 51.6143 77.745C51.2785 77.9166 50.9463 78.0972 50.618 78.2869C50.3074 78.4662 50.0022 78.6526 49.7023 78.8458C49.3679 79.0189 49.0368 79.2001 48.709 79.3894C48.3981 79.569 48.092 79.7548 47.7907 79.9468C47.4576 80.1212 47.1273 80.3029 46.8 80.492C46.4888 80.6718 46.1819 80.8572 45.8794 81.0481C45.5474 81.2236 45.2179 81.4058 44.8911 81.5945C44.5795 81.7745 44.2719 81.9596 43.9684 82.1497C43.6373 82.3261 43.3085 82.5086 42.9821 82.6971C42.6702 82.8773 42.362 83.062 42.0576 83.2514C41.7274 83.4286 41.3992 83.6113 41.0731 83.7997C40.761 83.98 40.4522 84.1645 40.147 84.3532C39.8175 84.5311 39.4899 84.7141 39.1642 84.9022C13.861 99.5165 9.59029 139.505 29.6252 174.22C49.66 208.934 86.4137 225.229 111.717 210.615C112.043 210.426 112.365 210.234 112.684 210.038ZM95.1047 195.357C83.1038 187.236 70.6742 173.572 60.6923 156.276C50.7105 138.981 45.0962 121.38 44.0665 106.923C43.2972 96.1198 45.089 87.1918 49.4099 81.4009C59.6205 78.8282 70.9413 80.2778 81.9406 85.1543C96.6672 91.6832 110.772 104.341 120.732 121.599C130.693 138.858 134.598 157.406 132.887 173.429C131.609 185.397 127.203 195.929 119.871 203.489C112.697 204.337 104.072 201.425 95.1047 195.357ZM118.724 204.624C118.884 204.472 119.042 204.32 119.199 204.166C101.936 205.584 77.3984 186.433 60.1687 156.579C42.939 126.725 38.6284 95.8909 48.4879 81.645C48.2761 81.7038 48.0649 81.7643 47.8541 81.8267C42.6355 87.8087 40.2693 97.3116 40.8086 108.82C41.4952 123.472 46.8951 141.19 56.8744 158.482C66.8537 175.773 79.4929 189.31 91.8336 197.231C101.527 203.452 110.936 206.154 118.724 204.624ZM117.602 205.649C117.703 205.561 117.804 205.472 117.903 205.382C99.7272 208.147 73.9138 189.216 56.3508 158.784C38.7877 128.352 35.3053 96.5231 46.7873 82.1588C46.6598 82.2005 46.5325 82.2428 46.4054 82.2858C40.2471 88.4491 37.2679 98.5214 37.5503 110.716C37.894 125.563 43.0797 143.4 53.0564 160.687C63.0331 177.973 75.8819 191.385 88.5627 199.106C98.9787 205.448 109.188 207.903 117.602 205.649ZM116.506 206.578C116.53 206.558 116.555 206.538 116.579 206.518C97.4678 210.6 70.3942 191.938 52.5328 160.989C34.6715 130.041 32.0524 97.2542 45.1411 82.7382C45.1119 82.7492 45.0828 82.7603 45.0536 82.7714C37.9184 89.1093 34.2907 99.7473 34.2916 112.612C34.2927 127.654 39.2644 145.61 49.2385 162.892C59.2125 180.174 72.2708 193.459 85.2918 200.981C96.4288 207.414 107.452 209.59 116.506 206.578ZM132.662 178.996C131.12 186.893 128.126 194.026 123.732 199.891C128.202 194.173 131.199 187.027 132.662 178.996ZM33.2212 89.918C24.5597 97.5623 19.3959 108.962 17.9941 122.088C16.2829 138.111 20.1885 156.659 30.1488 173.917C40.1091 191.176 54.2137 203.834 68.9404 210.363C81.0042 215.711 93.4548 216.937 104.403 213.255C80.9579 219.212 51.0644 202.547 33.4431 172.015C15.8218 141.482 16.3416 107.251 33.2212 89.918ZM77.0088 82.5655C69.3257 79.8175 61.64 78.8412 54.4556 79.8549C61.7297 78.9808 69.4017 79.9527 77.0088 82.5655ZM37.261 169.81C54.9488 200.457 84.3352 217.517 106.938 211.876C96.3319 215.461 84.1227 214.056 72.2103 208.485C57.8254 201.758 43.9298 188.976 33.9667 171.712C24.0036 154.449 19.8853 136.019 21.2541 120.193C22.3877 107.088 27.2761 95.8078 35.6829 88.4116C19.4976 105.173 19.5733 139.162 37.261 169.81ZM133.478 177.811C132.124 186.269 129.113 193.835 124.5 199.885C129.205 194.019 132.22 186.435 133.478 177.811ZM54.8443 79.1917C62.2752 78.0495 70.3478 79.2291 78.4424 82.451C70.4436 79.3956 62.3883 78.2206 54.8443 79.1917ZM134.235 176.732C133.103 185.678 130.13 193.605 125.364 199.767C130.238 193.829 133.218 185.88 134.235 176.732ZM38.1258 86.9185C29.9801 94.0573 25.3733 105.212 24.5139 118.299C23.4874 133.928 27.8187 152.239 37.7846 169.507C47.7506 186.775 61.4368 199.683 75.4804 206.609C87.239 212.407 99.1992 213.994 109.452 210.506C87.7022 215.828 58.833 198.367 41.079 167.605C23.325 136.842 22.644 103.101 38.1258 86.9185ZM79.7557 82.3351C71.3271 78.6414 62.9562 77.2491 55.3783 78.5028C63.0955 77.4544 71.4453 78.8423 79.7557 82.3351ZM44.8969 165.399C62.7168 196.276 91.0586 214.142 111.945 209.146C102.057 212.535 90.353 210.764 78.7507 204.732C65.0483 197.608 51.5713 184.575 41.6026 167.302C31.6339 150.029 27.0894 131.837 27.7734 116.404C28.3526 103.336 32.6714 92.3109 40.5494 85.4391C25.781 101.036 27.077 134.523 44.8969 165.399ZM134.944 175.74C134.064 185.113 131.173 193.341 126.312 199.553C131.299 193.609 134.199 185.357 134.944 175.74ZM56.0378 77.7889C63.6769 76.4401 72.2702 78.0534 80.9691 82.2166C72.414 78.2925 63.8457 76.6825 56.0378 77.7889ZM135.614 174.823C135.008 184.571 132.241 193.047 127.335 199.255C132.384 193.363 135.165 184.862 135.614 174.823ZM42.9534 83.9739C35.3497 90.5683 31.3252 101.458 31.0326 114.508C30.6911 129.745 35.4492 147.82 45.4205 165.097C55.3919 182.374 68.6596 195.534 82.0212 202.856C93.4651 209.128 104.904 211.086 114.415 207.796C94.4038 212.462 66.6002 194.184 48.7149 163.194C30.8295 132.204 28.9085 98.9777 42.9534 83.9739ZM82.098 82.0947C73.1822 77.464 64.4322 75.6223 56.807 77.0513C64.6343 75.9053 73.3551 77.7457 82.098 82.0947ZM136.251 173.97C135.938 184.048 133.33 192.724 128.427 198.884C133.493 193.095 136.12 184.391 136.251 173.97ZM57.6745 76.2907C65.2186 74.7957 74.0669 76.8721 83.1544 81.9687C74.2732 77.2017 65.4582 75.1232 57.6745 76.2907ZM136.861 173.175C136.856 183.54 134.439 192.375 129.583 198.446C134.624 192.807 137.066 183.944 136.861 173.175ZM84.1476 81.838C74.9271 76.2764 66.0332 73.9599 58.631 75.5081C66.3152 74.3366 75.1715 76.6602 84.1476 81.838ZM137.448 172.431C137.763 183.046 135.568 192.001 130.798 197.949C135.776 192.502 138.005 183.519 137.448 172.431ZM59.6691 74.7042C66.8736 73.1147 75.7652 75.6755 85.0851 81.7018C76.0533 76.1211 67.2036 73.546 59.6691 74.7042Z" fill="#43554A"/>
</svg>
