<svg width="240" height="240" viewBox="0 0 240 240" fill="none" xmlns="http://www.w3.org/2000/svg">
<path d="M15.8735 67.7199C15.8736 39.0879 38.9875 15.8772 67.5 15.8772C96.0125 15.8772 119.126 39.088 119.126 67.7199V119.563H67.5V120.44H120V67.7199C120 38.6035 96.4949 15.0001 67.5 15C38.505 15 15.0001 38.6035 15 67.7199C15 96.8364 38.505 120.44 67.5 120.44V119.563C38.9874 119.563 15.8735 96.3519 15.8735 67.7199Z" fill="#43554A"/>
<path d="M26.3737 72.9921C26.3737 47.2718 47.1367 26.4211 72.7496 26.421C98.3627 26.421 119.126 47.2717 119.126 72.9921V119.562H72.7496V120.439H120V72.9921C120 46.7873 98.8452 25.5438 72.7496 25.5438L72.1389 25.5481C46.325 25.8766 25.5002 46.9921 25.5002 72.9921L25.5036 73.6054C25.8307 99.5274 46.8582 120.439 72.7496 120.439V119.562C47.1368 119.562 26.3738 98.7123 26.3737 72.9921Z" fill="#43554A"/>
<path d="M36.873 78.2636C36.8732 55.455 55.2867 36.9651 78.0002 36.9651C100.536 36.9652 118.838 55.1674 119.123 77.73L119.126 78.2636V119.563H78.0002V120.44H120V78.2636C120 54.9707 101.196 36.088 78.0002 36.0879C54.8043 36.0879 35.9996 54.9706 35.9995 78.2636L36.0029 78.8093C36.2937 101.851 54.9855 120.44 78.0002 120.44V119.563C55.2866 119.563 36.873 101.072 36.873 78.2636Z" fill="#43554A"/>
<path d="M47.3734 83.5363C47.3734 63.6393 63.4359 47.5096 83.2499 47.5095C102.754 47.5095 118.623 63.1389 119.115 82.606L119.126 83.5363V119.563H83.2499V120.44H120V83.5363C120 63.1549 103.546 46.6323 83.2499 46.6323L82.3013 46.6443C62.4433 47.1496 46.4998 63.4734 46.4998 83.5363L46.5118 84.4889C47.015 104.43 63.2707 120.44 83.2499 120.44V119.563C63.436 119.563 47.3734 103.433 47.3734 83.5363Z" fill="#43554A"/>
<path d="M57.8734 88.8075C57.8736 71.8223 71.5859 58.0531 88.5004 58.0531C105.415 58.0533 119.126 71.8224 119.126 88.8075V119.563H88.5004V120.44H120V88.8075C120 71.3379 105.897 57.1761 88.5004 57.1759C71.1035 57.1759 57.0001 71.3378 56.9999 88.8075L57.0101 89.6247C57.4415 106.717 71.3753 120.44 88.5004 120.44V119.563C71.5858 119.563 57.8734 105.793 57.8734 88.8075Z" fill="#43554A"/>
<path d="M68.3734 94.0802C68.3734 80.0064 79.7349 68.5974 93.7499 68.5974C107.765 68.5974 119.126 80.0065 119.126 94.0802V119.563H93.7499V120.44H120V94.0802C120 79.522 108.247 67.7202 93.7499 67.7202C79.2524 67.7202 67.4999 79.522 67.4999 94.0802C67.4999 108.638 79.2524 120.44 93.7499 120.44V119.563C79.7348 119.563 68.3734 108.154 68.3734 94.0802Z" fill="#43554A"/>
<path d="M78.8737 99.3525C78.8737 88.1904 87.8842 79.1415 98.9997 79.1413C109.942 79.1413 118.844 87.9096 119.12 98.8308L119.126 99.3525V119.563H98.9997V120.44H120V99.3525C120 87.7059 110.598 78.2642 98.9997 78.2642L98.458 78.271C87.1105 78.5597 78.0002 87.8878 78.0002 99.3525L78.007 99.8964C78.2945 111.291 87.583 120.44 98.9997 120.44V119.563C87.8843 119.563 78.8738 110.514 78.8737 99.3525Z" fill="#43554A"/>
<path d="M15.8735 172.28C15.8736 200.912 38.9875 224.123 67.5 224.123C96.0125 224.123 119.126 200.912 119.126 172.28V120.437H67.5V119.56H120V172.28C120 201.396 96.4949 225 67.5 225C38.505 225 15.0001 201.396 15 172.28C15 143.163 38.505 119.56 67.5 119.56V120.437C38.9874 120.437 15.8735 143.648 15.8735 172.28Z" fill="#43554A"/>
<path d="M26.3737 167.007C26.3737 192.727 47.1367 213.578 72.7496 213.578C98.3627 213.578 119.126 192.728 119.126 167.007V120.437H72.7496V119.56H120V167.007C120 193.212 98.8452 214.455 72.7496 214.455L72.1389 214.451C46.325 214.123 25.5002 193.007 25.5002 167.007L25.5036 166.394C25.8307 140.472 46.8582 119.56 72.7496 119.56V120.437C47.1368 120.437 26.3738 141.287 26.3737 167.007Z" fill="#43554A"/>
<path d="M36.873 161.736C36.8732 184.545 55.2867 203.035 78.0002 203.035C100.536 203.035 118.838 184.832 119.123 162.27L119.126 161.736V120.437H78.0002V119.56H120V161.736C120 185.029 101.196 203.912 78.0002 203.912C54.8043 203.912 35.9996 185.029 35.9995 161.736L36.0029 161.19C36.2937 138.149 54.9855 119.56 78.0002 119.56V120.437C55.2866 120.437 36.873 138.927 36.873 161.736Z" fill="#43554A"/>
<path d="M47.3734 156.464C47.3734 176.361 63.4359 192.49 83.2499 192.49C102.754 192.49 118.623 176.861 119.115 157.394L119.126 156.464V120.437H83.2499V119.56H120V156.464C120 176.845 103.546 193.368 83.2499 193.368L82.3013 193.356C62.4433 192.85 46.4998 176.527 46.4998 156.464L46.5118 155.511C47.015 135.57 63.2707 119.56 83.2499 119.56V120.437C63.436 120.437 47.3734 136.567 47.3734 156.464Z" fill="#43554A"/>
<path d="M57.8734 151.192C57.8736 168.177 71.5859 181.946 88.5004 181.946C105.415 181.946 119.126 168.177 119.126 151.192V120.437H88.5004V119.56H120V151.192C120 168.662 105.897 182.823 88.5004 182.824C71.1035 182.824 57.0001 168.662 56.9999 151.192L57.0101 150.375C57.4415 133.282 71.3753 119.56 88.5004 119.56V120.437C71.5858 120.437 57.8734 134.207 57.8734 151.192Z" fill="#43554A"/>
<path d="M68.3734 145.92C68.3734 159.994 79.7349 171.403 93.7499 171.403C107.765 171.403 119.126 159.994 119.126 145.92V120.437H93.7499V119.56H120V145.92C120 160.478 108.247 172.28 93.7499 172.28C79.2524 172.28 67.4999 160.478 67.4999 145.92C67.4999 131.362 79.2524 119.56 93.7499 119.56V120.437C79.7348 120.437 68.3734 131.846 68.3734 145.92Z" fill="#43554A"/>
<path d="M78.8737 140.648C78.8737 151.81 87.8842 160.858 98.9997 160.859C109.942 160.859 118.844 152.09 119.12 141.169L119.126 140.648V120.437H98.9997V119.56H120V140.648C120 152.294 110.598 161.736 98.9997 161.736L98.458 161.729C87.1105 161.44 78.0002 152.112 78.0002 140.648L78.007 140.104C78.2945 128.709 87.583 119.56 98.9997 119.56V120.437C87.8843 120.437 78.8738 129.486 78.8737 140.648Z" fill="#43554A"/>
<path d="M224.126 67.7199C224.126 39.0879 201.013 15.8772 172.5 15.8772C143.988 15.8772 120.874 39.088 120.874 67.7199V119.563H172.5V120.44H120V67.7199C120 38.6035 143.505 15.0001 172.5 15C201.495 15 225 38.6035 225 67.7199C225 96.8364 201.495 120.44 172.5 120.44V119.563C201.013 119.563 224.126 96.3519 224.126 67.7199Z" fill="#43554A"/>
<path d="M213.626 72.9921C213.626 47.2718 192.863 26.4211 167.25 26.421C141.637 26.421 120.874 47.2717 120.874 72.9921V119.562H167.25V120.439H120V72.9921C120 46.7873 141.155 25.5438 167.25 25.5438L167.861 25.5481C193.675 25.8766 214.5 46.9921 214.5 72.9921L214.496 73.6054C214.169 99.5274 193.142 120.439 167.25 120.439V119.562C192.863 119.562 213.626 98.7123 213.626 72.9921Z" fill="#43554A"/>
<path d="M203.127 78.2636C203.127 55.455 184.713 36.9651 162 36.9651C139.464 36.9652 121.162 55.1674 120.877 77.73L120.874 78.2636V119.563H162V120.44H120V78.2636C120 54.9707 138.804 36.088 162 36.0879C185.196 36.0879 204 54.9706 204.001 78.2636L203.997 78.8093C203.706 101.851 185.015 120.44 162 120.44V119.563C184.713 119.563 203.127 101.072 203.127 78.2636Z" fill="#43554A"/>
<path d="M192.627 83.5363C192.627 63.6393 176.564 47.5096 156.75 47.5095C137.246 47.5095 121.377 63.1389 120.885 82.606L120.874 83.5363V119.563H156.75V120.44H120V83.5363C120 63.1549 136.454 46.6323 156.75 46.6323L157.699 46.6443C177.557 47.1496 193.5 63.4734 193.5 83.5363L193.488 84.4889C192.985 104.43 176.729 120.44 156.75 120.44V119.563C176.564 119.563 192.627 103.433 192.627 83.5363Z" fill="#43554A"/>
<path d="M182.127 88.8075C182.126 71.8223 168.414 58.0531 151.5 58.0531C134.585 58.0533 120.874 71.8224 120.874 88.8075V119.563H151.5V120.44H120V88.8075C120 71.3379 134.103 57.1761 151.5 57.1759C168.897 57.1759 183 71.3378 183 88.8075L182.99 89.6247C182.558 106.717 168.625 120.44 151.5 120.44V119.563C168.414 119.563 182.127 105.793 182.127 88.8075Z" fill="#43554A"/>
<path d="M171.627 94.0802C171.627 80.0064 160.265 68.5974 146.25 68.5974C132.235 68.5974 120.874 80.0065 120.874 94.0802V119.563H146.25V120.44H120V94.0802C120 79.522 131.753 67.7202 146.25 67.7202C160.748 67.7202 172.5 79.522 172.5 94.0802C172.5 108.638 160.748 120.44 146.25 120.44V119.563C160.265 119.563 171.627 108.154 171.627 94.0802Z" fill="#43554A"/>
<path d="M161.126 99.3525C161.126 88.1904 152.116 79.1415 141 79.1413C130.058 79.1413 121.156 87.9096 120.88 98.8308L120.874 99.3525V119.563H141V120.44H120V99.3525C120 87.7059 129.402 78.2642 141 78.2642L141.542 78.271C152.89 78.5597 162 87.8878 162 99.3525L161.993 99.8964C161.706 111.291 152.417 120.44 141 120.44V119.563C152.116 119.563 161.126 110.514 161.126 99.3525Z" fill="#43554A"/>
<path d="M224.126 172.28C224.126 200.912 201.013 224.123 172.5 224.123C143.988 224.123 120.874 200.912 120.874 172.28V120.437H172.5V119.56H120V172.28C120 201.396 143.505 225 172.5 225C201.495 225 225 201.396 225 172.28C225 143.163 201.495 119.56 172.5 119.56V120.437C201.013 120.437 224.126 143.648 224.126 172.28Z" fill="#43554A"/>
<path d="M213.626 167.007C213.626 192.727 192.863 213.578 167.25 213.578C141.637 213.578 120.874 192.728 120.874 167.007V120.437H167.25V119.56H120V167.007C120 193.212 141.155 214.455 167.25 214.455L167.861 214.451C193.675 214.123 214.5 193.007 214.5 167.007L214.496 166.394C214.169 140.472 193.142 119.56 167.25 119.56V120.437C192.863 120.437 213.626 141.287 213.626 167.007Z" fill="#43554A"/>
<path d="M203.127 161.736C203.127 184.545 184.713 203.035 162 203.035C139.464 203.035 121.162 184.832 120.877 162.27L120.874 161.736V120.437H162V119.56H120V161.736C120 185.029 138.804 203.912 162 203.912C185.196 203.912 204 185.029 204.001 161.736L203.997 161.19C203.706 138.149 185.015 119.56 162 119.56V120.437C184.713 120.437 203.127 138.927 203.127 161.736Z" fill="#43554A"/>
<path d="M192.627 156.464C192.627 176.361 176.564 192.49 156.75 192.49C137.246 192.49 121.377 176.861 120.885 157.394L120.874 156.464V120.437H156.75V119.56H120V156.464C120 176.845 136.454 193.368 156.75 193.368L157.699 193.356C177.557 192.85 193.5 176.527 193.5 156.464L193.488 155.511C192.985 135.57 176.729 119.56 156.75 119.56V120.437C176.564 120.437 192.627 136.567 192.627 156.464Z" fill="#43554A"/>
<path d="M182.127 151.192C182.126 168.177 168.414 181.946 151.5 181.946C134.585 181.946 120.874 168.177 120.874 151.192V120.437H151.5V119.56H120V151.192C120 168.662 134.103 182.823 151.5 182.824C168.897 182.824 183 168.662 183 151.192L182.99 150.375C182.558 133.282 168.625 119.56 151.5 119.56V120.437C168.414 120.437 182.127 134.207 182.127 151.192Z" fill="#43554A"/>
<path d="M171.627 145.92C171.627 159.994 160.265 171.403 146.25 171.403C132.235 171.403 120.874 159.994 120.874 145.92V120.437H146.25V119.56H120V145.92C120 160.478 131.753 172.28 146.25 172.28C160.748 172.28 172.5 160.478 172.5 145.92C172.5 131.362 160.748 119.56 146.25 119.56V120.437C160.265 120.437 171.627 131.846 171.627 145.92Z" fill="#43554A"/>
<path d="M161.126 140.648C161.126 151.81 152.116 160.858 141 160.859C130.058 160.859 121.156 152.09 120.88 141.169L120.874 140.648V120.437H141V119.56H120V140.648C120 152.294 129.402 161.736 141 161.736L141.542 161.729C152.89 161.44 162 152.112 162 140.648L161.993 140.104C161.706 128.709 152.417 119.56 141 119.56V120.437C152.116 120.437 161.126 129.486 161.126 140.648Z" fill="#43554A"/>
</svg>
